# xmcd
#
# Track frame offsets:
# 150
# 15118
# 26851
# 36456
# 53538
# 66560
# 90443
# 104507
# 117258
# 142466
# 157344
# 176374
# 191063
# 210838
# 231105
# 243860
# 267705
# 280125
#
# Disc length: 4012 seconds
#
#
# Revision: 0
# Processed by: cddbd v1.4PL0 Copyright (c) Steve Scherf et al.
# Submitted via: FreeRIP 2.40 
#
DISCID=070faa12
DTITLE=5 Blind Boys of Alabama - Collector's Edition
DYEAR=2002
DGENRE=Gospel
TTITLE0=There's Got to Be a Change Made
TTITLE1=Messiah
TTITLE2=Morning Train
TTITLE3=I'll Always Be In Love With God
TTITLE4=I You Don't Pray For Me
TTITLE5=Everybody's Going Somewhere
TTITLE6=Lord, Don't Move the Mounain
TTITLE7=Swing Low, Sweet Chariot
TTITLE8=Brokenhearted Mother
TTITLE9=I Want to Go
TTITLE10=All things Are Possible
TTITLE11=When the Lord Gets ready
TTITLE12=Shackled By a Heavy Burden
TTITLE13=I'm on the Battlefield
TTITLE14=Don't Forget to Pray
TTITLE15=Beams of Heaven
TTITLE16=If It Wasn't For Jesus
TTITLE17=Amazing Grace
EXTD=
EXTT0=
EXTT1=
EXTT2=
EXTT3=
EXTT4=
EXTT5=
EXTT6=
EXTT7=
EXTT8=
EXTT9=
EXTT10=
EXTT11=
EXTT12=
EXTT13=
EXTT14=
EXTT15=
EXTT16=
EXTT17=
PLAYORDER=
